# xmcd CD database file
#
# Track frame offsets:
#	150
#	20112
#	36346
#	51698
#	69270
#	86730
#	104102
#	118971
#	131982
#	143889
#	158748
#	173162
#	186841
#	203053
#	218695
#
# Disc length: 3094 seconds
#
# Revision: 0
# Processed by: cddbd v1.5.1PL0 Copyright (c) Steve Scherf et al.
# Submitted via: Feurio! 1.67 - http://www.feurio.com
#
DISCID=ed0c140f
DTITLE=Johnny Cash - American IV (The Man Comes Around)
DYEAR=1900
DGENRE=
TTITLE0=The Man comes around
TTITLE1=Hurt
TTITLE2=Give my love to Rose
TTITLE3=Bridge over Troubled Water
TTITLE4=I Hung my Head
TTITLE5=First Time ever I saw your Fac
TTITLE6=Perosnal Jesus
TTITLE7=In my Life
TTITLE8=Sam Hall
TTITLE9=Danny Boy
TTITLE10=Desperado
TTITLE11=I'm so lonesome I could cry
TTITLE12=Tear Stained Letter
TTITLE13=Streets of Laredo
TTITLE14=We'll meet again
EXTD=
EXTT0=
EXTT1=
EXTT2=
EXTT3=
EXTT4=
EXTT5=
EXTT6=
EXTT7=
EXTT8=
EXTT9=
EXTT10=
EXTT11=
EXTT12=
EXTT13=
EXTT14=
PLAYORDER=
